<?xml version="1.0" standalone="no"?>
<!DOCTYPE svg PUBLIC "-//W3C//DTD SVG 20010904//EN"
 "http://www.w3.org/TR/2001/REC-SVG-20010904/DTD/svg10.dtd">
<svg version="1.0" xmlns="http://www.w3.org/2000/svg"
 width="330.000000pt" height="308.000000pt" viewBox="0 0 330.000000 308.000000"
 preserveAspectRatio="xMidYMid meet">
<metadata>
Created by potrace 1.15, written by Peter Selinger 2001-2017
</metadata>
<g transform="translate(0.000000,308.000000) scale(0.100000,-0.100000)"
fill="#000000" stroke="none">
<path d="M0 2830 l0 -250 1650 0 1650 0 0 250 0 250 -1650 0 -1650 0 0 -250z"/>
<path d="M0 1450 l0 -250 875 0 875 0 0 250 0 250 -875 0 -875 0 0 -250z"/>
<path d="M0 250 l0 -250 1650 0 1650 0 0 250 0 250 -1650 0 -1650 0 0 -250z"/>
</g>
</svg>
